<?xml version="1.0" encoding="utf-8"?>
<!-- Generator: Adobe Illustrator 22.1.0, SVG Export Plug-In . SVG Version: 6.00 Build 0)  -->
<svg version="1.1" id="Layer_1" xmlns="http://www.w3.org/2000/svg" xmlns:xlink="http://www.w3.org/1999/xlink" x="0px" y="0px"
	 viewBox="0 0 128 128" style="enable-background:new 0 0 128 128;" xml:space="preserve">
<style type="text/css">
	.st0{fill:#F7931A;}
	.st1{fill:#FFFFFF;}
</style>
<g transform="translate(0.00630876,-0.00301984)">
	<path class="st0" d="M125.1,79.2c-8.4,33.8-42.6,54.3-76.4,45.9C15,116.7-5.5,82.5,2.9,48.8C11.3,15,45.5-5.5,79.2,2.9
		C113,11.3,133.5,45.5,125.1,79.2z"/>
	<path class="st1" d="M91.8,55c1.3-8.4-5.1-12.9-13.9-15.9l2.8-11.4l-6.9-1.7l-2.8,11.1c-1.8-0.5-3.7-0.9-5.5-1.3l2.8-11.1L61.4,23
		l-2.8,11.4c-1.5-0.3-3-0.7-4.4-1l0,0l-9.5-2.4l-1.8,7.4c0,0,5.1,1.2,5,1.2c2.8,0.7,3.3,2.6,3.2,4l-3.2,12.9c0.2,0,0.4,0.1,0.7,0.2
		c-0.2-0.1-0.5-0.1-0.7-0.2l-4.5,18.1c-0.3,0.9-1.2,2.1-3.2,1.6c0.1,0.1-5-1.3-5-1.3l-3.4,7.9l9,2.2c1.7,0.4,3.3,0.9,4.9,1.3
		l-2.9,11.5l6.9,1.7l2.8-11.4c1.9,0.5,3.7,1,5.5,1.4L55.1,101l6.9,1.7l2.9-11.5c11.8,2.2,20.7,1.3,24.4-9.3c3-8.6-0.1-13.5-6.4-16.8
		C87.5,64.1,90.9,61.2,91.8,55z M76,77.2c-2.1,8.6-16.6,3.9-21.3,2.8l3.8-15.2C63.2,65.9,78.2,68.2,76,77.2z M78.1,54.9
		c-1.9,7.8-14,3.8-17.9,2.9L63.7,44C67.6,44.9,80.1,46.8,78.1,54.9z"/>
</g>
</svg>
