<?xml version="1.0" encoding="utf-8"?>
<!-- Generator: Adobe Illustrator 22.1.0, SVG Export Plug-In . SVG Version: 6.00 Build 0)  -->
<svg version="1.1" baseProfile="basic" id="Layer_1"
	 xmlns="http://www.w3.org/2000/svg" xmlns:xlink="http://www.w3.org/1999/xlink" x="0px" y="0px" viewBox="0 0 300 300"
	 xml:space="preserve">
<circle fill="#DFAB3C" cx="150.3" cy="150.8" r="146.8"/>
<linearGradient id="SVGID_1_" gradientUnits="userSpaceOnUse" x1="-37.2231" y1="149.4" x2="422.2804" y2="149.4" gradientTransform="matrix(1 0 0 -1 0 300)">
	<stop  offset="0" style="stop-color:#1A1A1A"/>
	<stop  offset="1.086432e-02" style="stop-color:#191919"/>
	<stop  offset="0.2443" style="stop-color:#0B0B0B"/>
	<stop  offset="0.5279" style="stop-color:#030303"/>
	<stop  offset="1" style="stop-color:#000000"/>
</linearGradient>
<path fill="url(#SVGID_1_)" d="M194.8,170.4c-7.6,17.4-25,29-44.5,29c-26.8,0-48.6-21.8-48.6-48.6s21.8-48.6,48.6-48.6
	c19.4,0,36.7,11.5,44.4,28.8h27.8c-7.5-27.5-30-48-57.2-53.5v-12H139v11.3c-35.9,5.5-63.6,36.6-63.6,74c0,36,25.6,66.2,59.5,73.3
	v11.6h26.3v-10.8c29.1-4.3,53.5-25.5,61.3-54.5H194.8z"/>
<linearGradient id="SVGID_2_" gradientUnits="userSpaceOnUse" x1="-37.2231" y1="149.4" x2="422.2804" y2="149.4" gradientTransform="matrix(1 0 0 -1 0 300)">
	<stop  offset="0" style="stop-color:#1A1A1A"/>
	<stop  offset="1.086432e-02" style="stop-color:#191919"/>
	<stop  offset="0.2443" style="stop-color:#0B0B0B"/>
	<stop  offset="0.5279" style="stop-color:#030303"/>
	<stop  offset="1" style="stop-color:#000000"/>
</linearGradient>
<path fill="url(#SVGID_2_)" d="M228.6,179.4c-9.7,26.5-32.2,46.1-59.2,52.5v11.9h-42.5v-13c-13.3-3.9-25.5-11-35.5-21.1
	C75.7,194,67,173.1,67,150.8s8.7-43.2,24.4-58.9c11.1-11.1,24.7-18.6,39.5-22.1V57.5h42.5v13.3c25.3,7.3,46.1,26.3,55.3,51.6h27.5
	c-11.5-42.9-47.8-74.2-90.9-80.1V31.2H139v10.6c-25,2.5-48.2,13.5-66.2,31.5c-20.6,20.7-32,48.3-32,77.5s11.4,56.8,32.1,77.5
	c17,17,38.7,27.8,62.2,31V270h26.3v-10.2c44.8-4.5,83-36.3,94.9-80.4H228.6z"/>
</svg>
